<svg version="1.2" xmlns="http://www.w3.org/2000/svg" viewBox="0 0 363 386" width="363" height="386"><style>.a{fill:#fff}.b{fill:#eaf9f8}.c{fill:#e03c03}.d{fill:#ff6224}.e{fill:#ffc947}.f{fill:#20c3c5}.g{fill:#383873}.h{fill:#86bfbc}.i{fill:#b8e3e2}.j{fill:#9fccc9}.k{opacity:.1;fill:none;stroke:#000;stroke-linecap:round;stroke-miterlimit:10;stroke-width:.8}.l{fill:#382424}.m{fill:#ffad94}.n{opacity:.3}.o{fill:#0c2059}.p{fill:#2e4780}.q{opacity:.1}.r{fill:#169799}.s{fill:none;stroke:#000;stroke-linecap:round;stroke-miterlimit:10;stroke-width:.8}.t{fill:none;stroke:#000;stroke-linecap:round;stroke-miterlimit:10;stroke-width:.8;stroke-dasharray:4.152499999999999,4.152499999999999}</style><path class="a" d="m-69-50h500v500h-500z"/><path class="b" d="m348.8 182.3c-23.4 34.9-73.2 143-60.9 183.1l-178.8 0.1c0 0-25.8-19.3-50.9-52.7-4.5-6.1-9.1-12.6-13.4-19.6-4.6-7.4-9-15.3-13-23.6-11.7-24.2-20-52.3-20.3-83.3-1.2-107.4 91.8-207.1 218.2-166.9 126.3 40.3 142.4 127.9 119.1 162.9z"/><path class="c" d="m236.9 366.7c-0.3 0-0.7-0.2-0.9-0.5l-95.3-118.5c-0.4-0.5-0.4-1.3 0.2-1.7 0.5-0.4 1.3-0.3 1.7 0.2l95.3 118.5c0.4 0.5 0.3 1.3-0.2 1.7q-0.3 0.3-0.8 0.3z"/><path class="d" d="m89.1 366.7q-0.4 0-0.8-0.3c-0.5-0.4-0.6-1.2-0.1-1.7l95.3-118.5c0.4-0.5 1.2-0.6 1.7-0.2 0.5 0.4 0.6 1.2 0.2 1.7l-95.3 118.5c-0.3 0.3-0.6 0.5-1 0.5z"/><path class="d" d="m184.4 366.7c-0.3 0-0.7-0.2-0.9-0.5l-95.3-118.5c-0.5-0.5-0.4-1.3 0.1-1.7 0.6-0.4 1.3-0.3 1.8 0.2l95.3 118.5c0.4 0.5 0.3 1.3-0.2 1.7q-0.4 0.3-0.8 0.3z"/><path class="c" d="m106 250.1h-44.3c-1.7 0-3.1-1.4-3.1-3.1 0-1.8 1.4-3.2 3.1-3.2h44.3c1.7 0 3.1 1.4 3.1 3.2 0 1.7-1.4 3.1-3.1 3.1z"/><path class="d" d="m233.4 250.1h-126.6c-1.7 0-3.1-1.4-3.1-3.1 0-1.8 1.4-3.2 3.1-3.2h126.6z"/><path class="c" d="m140.2 306.2c0 1.9-1.5 3.4-3.4 3.4-1.9 0-3.5-1.5-3.5-3.4 0-1.9 1.6-3.4 3.5-3.4 1.9 0 3.4 1.5 3.4 3.4z"/><path class="e" d="m192.7 306.2c0 1.9-1.5 3.4-3.4 3.4-1.9 0-3.4-1.5-3.4-3.4 0-1.9 1.5-3.4 3.4-3.4 1.9 0 3.4 1.5 3.4 3.4z"/><path class="f" d="m147 149.9h-44.6c-2.2 0-4-1.8-4-4v-33.2c0-2.2 1.8-3.9 4-3.9h44.6c2.2 0 4 1.7 4 3.9v33.2c0 2.2-1.8 4-4 4z"/><path fill-rule="evenodd" class="a" d="m137.4 128.2v2.5c0 0.7-0.6 1.2-1.3 1.2h-1.5q-0.4 1.5-1.1 2.8l1 1c0.5 0.5 0.5 1.3 0 1.8l-1.8 1.7c-0.5 0.5-1.3 0.5-1.8 0l-0.9-0.9q-1.4 0.8-2.9 1.1v1.3c0 0.7-0.5 1.3-1.2 1.3h-2.6c-0.7 0-1.2-0.6-1.2-1.3v-1.4q-1.5-0.4-2.8-1.2l-1 1c-0.4 0.5-1.2 0.5-1.7 0l-1.8-1.8c-0.5-0.5-0.5-1.3 0-1.8l1.1-1.1q-0.6-1.3-0.9-2.7h-1.7c-0.7 0-1.2-0.5-1.2-1.2v-2.5c0-0.7 0.5-1.3 1.2-1.3h1.9q0.4-1.3 1.1-2.4l-1.4-1.3c-0.5-0.5-0.5-1.3 0-1.8l1.8-1.8c0.5-0.5 1.3-0.5 1.8 0l1.5 1.5q1.1-0.6 2.3-0.9v-2.1c0-0.7 0.6-1.2 1.2-1.2h2.6c0.7 0 1.2 0.5 1.2 1.2v2q1.3 0.4 2.4 1l1.4-1.3c0.5-0.5 1.2-0.5 1.7 0l1.8 1.8c0.5 0.4 0.5 1.2 0 1.7l-1.2 1.3q0.7 1.2 1.1 2.5h1.6c0.7 0 1.3 0.6 1.3 1.3zm-6.3 2.7c0.8-4.5-3-8.4-7.5-7.5-2.6 0.5-4.6 2.5-5.1 5-0.8 4.5 3.1 8.4 7.6 7.5 2.5-0.4 4.5-2.5 5-5z"/><path class="d" d="m214.2 127.2h-44.6c-2.2 0-4-1.8-4-4v-33.2c0-2.2 1.8-4 4-4h44.6c2.2 0 4 1.8 4 4v33.2c0 2.2-1.8 4-4 4z"/><path class="a" d="m183 113.5c-0.3 0-0.6-0.1-0.9-0.4l-5.5-5.9c-0.5-0.5-0.5-1.3 0-1.9l5.6-6c0.5-0.5 1.3-0.5 1.7 0 0.5 0.5 0.5 1.4 0 1.9l-4.7 5.1 4.6 5c0.5 0.5 0.5 1.3 0 1.8-0.2 0.3-0.5 0.4-0.8 0.4z"/><path class="a" d="m200.7 113.5c-0.3 0-0.6-0.1-0.8-0.4-0.5-0.5-0.5-1.3 0-1.8l4.6-5-4.7-5.1c-0.5-0.5-0.5-1.4 0-1.9 0.5-0.5 1.2-0.5 1.7 0l5.6 6c0.3 0.3 0.4 0.6 0.4 1 0 0.3-0.1 0.7-0.4 0.9l-5.5 5.9c-0.2 0.3-0.5 0.4-0.9 0.4z"/><path class="a" d="m189.1 115.1q-0.2 0-0.5-0.1c-0.6-0.2-0.9-1-0.6-1.7l5.5-14.4c0.2-0.7 0.9-1 1.6-0.8 0.6 0.3 0.9 1.1 0.6 1.8l-5.5 14.4c-0.1 0.5-0.6 0.8-1.1 0.8z"/><path class="a" d="m254.4 135.1h-110.6v-3.4c0-0.9 0.7-1.7 1.6-1.7h107.4c0.9 0 1.6 0.8 1.6 1.7 0 0 0 3.4 0 3.4z"/><path class="g" d="m251.3 194.1h-104.5c-1.7 0-3-1.4-3-3.1v-55.9h110.6v55.9c0 1.7-1.4 3.1-3.1 3.1z"/><path class="d" d="m249.1 132.6c0 0.4-0.3 0.7-0.8 0.7-0.4 0-0.7-0.3-0.7-0.7 0-0.5 0.3-0.8 0.7-0.8 0.5 0 0.8 0.3 0.8 0.8z"/><path class="d" d="m243.8 132.6c0 0.4-0.4 0.7-0.8 0.7-0.4 0-0.8-0.3-0.8-0.7 0-0.5 0.4-0.8 0.8-0.8 0.4 0 0.8 0.3 0.8 0.8z"/><path class="d" d="m238.4 132.6c0 0.4-0.3 0.7-0.8 0.7-0.4 0-0.7-0.3-0.7-0.7 0-0.5 0.3-0.8 0.7-0.8 0.5 0 0.8 0.3 0.8 0.8z"/><path class="f" d="m210.9 143.1h-61.4c-0.6 0-1.1-0.5-1.1-1.1 0-0.6 0.5-1.1 1.1-1.1h61.4c0.6 0 1.1 0.5 1.1 1.1 0 0.6-0.5 1.1-1.1 1.1z"/><path class="f" d="m210.9 149.9h-61.4c-0.6 0-1.1-0.5-1.1-1.1 0-0.6 0.5-1.1 1.1-1.1h61.4c0.6 0 1.1 0.5 1.1 1.1 0 0.6-0.5 1.1-1.1 1.1z"/><path class="f" d="m181.6 156.7h-32.1c-0.6 0-1.1-0.5-1.1-1.1 0-0.6 0.5-1.1 1.1-1.1h32.1c0.6 0 1.1 0.5 1.1 1.1 0 0.6-0.5 1.1-1.1 1.1z"/><path class="d" d="m210.9 170.3h-61.4c-0.6 0-1.1-0.5-1.1-1.1 0-0.6 0.5-1.1 1.1-1.1h61.4c0.6 0 1.1 0.5 1.1 1.1 0 0.6-0.5 1.1-1.1 1.1z"/><path class="d" d="m181.6 177.1h-32.1c-0.6 0-1.1-0.5-1.1-1.1 0-0.6 0.5-1.1 1.1-1.1h32.1c0.6 0 1.1 0.5 1.1 1.1 0 0.6-0.5 1.1-1.1 1.1z"/><path class="f" d="m181.6 183.9h-32.1c-0.6 0-1.1-0.5-1.1-1.1 0-0.6 0.5-1 1.1-1h32.1c0.6 0 1.1 0.4 1.1 1 0 0.6-0.5 1.1-1.1 1.1z"/><path class="a" d="m210.9 156.7h-23c-0.6 0-1.1-0.5-1.1-1.1 0-0.6 0.5-1.1 1.1-1.1h23c0.6 0 1.1 0.5 1.1 1.1 0 0.6-0.5 1.1-1.1 1.1z"/><path class="d" d="m241.5 141.4l-16.4 16.3c-0.4 0.4-1.1 0.4-1.5 0-0.4-0.4-0.4-1.1 0-1.5l16.3-16.3c0.5-0.4 1.1-0.4 1.6 0 0.4 0.4 0.4 1.1 0 1.5z"/><path class="d" d="m241.9 174.5c-1.2 5.2-6.4 8.4-11.6 7.2-5.2-1.3-8.4-6.5-7.1-11.6 1.2-5.2 6.4-8.4 11.5-7.2 5.2 1.2 8.4 6.4 7.2 11.6z"/><path class="f" d="m231.3 179c0 3-2.5 5.4-5.5 5.4-3 0-5.4-2.4-5.4-5.4 0-3 2.4-5.5 5.4-5.5 3 0 5.5 2.5 5.5 5.5z"/><path class="g" d="m143.8 188.1v19.5l17.8-17.9"/><path class="h" d="m124.7 212.8h39.3l14.2 27.4h-39.3z"/><path class="a" d="m139.7 238.2l-11.8-22.7c-0.2-0.4 0.1-1 0.7-1h33.9c0.3 0 0.5 0.1 0.7 0.4l11.7 22.6c0.3 0.5-0.1 1-0.6 1h-34c-0.2 0-0.5-0.1-0.6-0.3z"/><path class="i" d="m138.9 240.2h31.8v3.6h-31.8z"/><path class="j" d="m198 240.2h-31.4c-1 0-1.8 0.8-1.8 1.8 0 1 0.8 1.8 1.8 1.8h31.4c1 0 1.8-0.8 1.8-1.8 0-1-0.8-1.8-1.8-1.8z"/><path class="i" d="m138.9 240.2l-14.2-27.4-0.7 0.6c-0.5 0.3-0.6 1-0.3 1.5l15.2 28.9c0 0 0-3.6 0-3.6z"/><path class="j" d="m149.7 241.9h3.5v0.6h-3.5z"/><path class="j" d="m154.1 241.9h3.5v0.6h-3.5z"/><path class="j" d="m158.5 241.9h3.5v0.6h-3.5z"/><path class="g" d="m210.5 293.7c0 0-32.6 25.3-37.7 31.8-2 2.4-5.4 6.7-8.9 11-5.8 7.2-11.9 14.7-12.6 14.9-1.2 0.3-11-7.1-11.3-8.7-0.2-1 8.7-16.3 16.4-28.6 4.7-7.4 9-13.8 10.5-15.2 3.9-3.6 28.1-16.5 28.1-16.5z"/><path class="k" d="m148.3 346c0 0 30.5-43.3 45.7-50.6"/><path class="l" d="m244.4 182.5q-0.5 1.1-1.2 2.4c-2.3 4.5-0.6 9.1-3.3 10.3q-0.2 0.1-0.5 0.1c-3.5 0.8-11.6-3.8-12-6.2-0.3-2.3 2.5-6.3 0-6.8-2.5-0.5-3.8 3.7-3.8 3.7-2 0.2-2.8-3.2-6.1-3.2q-0.7 0-1.4 0.2c-1.6 0.4-3 1.3-3.9 2.1-0.6 0.5-1 1-1 1 0 0-3-1.9-2.8-5.6 0.2-5.9 2.4-10.2 7.6-11.1 0.6-6.6 6-10.1 13.2-10.3 6.3-0.2 7.3 5.5 7.4 6.9 0-1.1-0.3-4.5-1.8-6.9 3.2-0.1 5.9 2.1 5.2 9.5 0.7-2.2 3.3-3.6 5.3-2-1.9 0-3.6 3.1-3.6 3.1 0 0 2.1 1.3 3.6 3.9 1.2 2.1 0.7 5.1-0.9 8.9z"/><path class="m" d="m239.9 195.2l-0.1 1.1-0.3 3.8c0 0-5.8 5-9.1 0q0-0.1-0.1-0.1c-1-1.5-1.9-2.1-2.8-2.2-1.8-0.2-3.3 1.6-4.8-0.3-4.3-5.6-6.1-12-6.6-14.5q0.7-0.2 1.4-0.2c3.3 0 4.1 3.4 6.1 3.2 0 0 1.3-4.2 3.8-3.7 2.5 0.5-0.3 4.5 0 6.8 0.2 1.1 1.9 2.6 4 3.8 2.5 1.5 5.6 2.7 7.6 2.5q0.2 0 0.4-0.1 0.3 0 0.5-0.1z"/><path class="n" d="m240.8 202.3c-2.6 1.8-7.4 2.1-7.4 2.1l-4-0.6c0 0-1.6-2.4-0.8-3.7 0.1-0.3 0.5-0.6 1-1.1 1.1-0.8 2.8-1.9 4.5-2.9 1.8-0.9 3.7-1.6 5.1-1.7 3.3-0.2 4.2 6.1 1.6 7.9z"/><path class="f" d="m240 266.1c-5.8 1.2-18.2-2.3-24.2-5-1.7-0.7-2.9-1.5-3.2-2-1.1-2 0-3.5 2.8-9.9q0.5-1.1 1.1-2.3c1.9-4.5 1.9-14.1 1.9-22.4-0.1-7.1-0.1-13.3 1-14.3 2.5-2.4 14.7-10.1 14.7-10.1l2.4 12.7c0 0 1.4 6.4 2.9 14.8 2.6 15.4 5.6 37.6 0.6 38.5z"/><path class="g" d="m244.1 271.8c0 0.6-5.8 14.2-10.7 16.1-4.9 2-34.4-0.2-34.4-0.2l-14.6 9.6 3.1 28.7 2.1 20 0.1 0.7c-4.5 2.9-15.7 3.7-16.9 1.1q-0.1 0-0.1 0c-1.1-2.5-19-56.4-12-65.7 7-9.3 51.9-23 51.9-23 1.2 0.8 2.5 1.5 4 2 5 2.1 11.4 3.4 16.2 4.1 1.8 0.3 3.5 0.5 4.7 0.7 1.6 0.2 2.5 0.2 2.5 0.2 0 0 4.1 5.1 4.1 5.7z"/><path class="o" d="m191.5 365.4h-37.9c-0.2-0.6 0-1.3 0.6-2 1.6-1.9 5.4-3.7 9.1-5.3 3.6-1.5 6.9-2.9 8.1-3.8 2.7-2.1 1.4-6.2 1.4-6.5 0.4 0.9 1.9 1.4 4 1.5 4 0.3 9.9-0.7 12.9-2.6l-0.1-0.7c1.1 2.2 1.7 12.8 1.8 17.4 0.1 1.2 0.1 2 0.1 2z"/><path class="p" d="m176.8 349.3c-0.2 1.8-0.4 4.7-0.9 5.5-0.8 1.2-9.2 5.3-10.4 4.9-0.7-0.3-1.6-1.1-2.2-1.6 3.6-1.5 6.9-2.9 8.1-3.8 2.7-2.1 1.4-6.2 1.4-6.5 0.4 0.9 1.9 1.4 4 1.5z"/><path class="p" d="m191.5 365.4h-37.9c-0.2-0.6 0-1.3 0.6-2h37.2c0.1 1.2 0.1 2 0.1 2z"/><path class="o" d="m151.3 351.4c-0.1 0-2.9 7.6-5.4 11.6-1 1.6-2 2.7-2.6 2.4-2.4-0.9-25.8-20.8-23.6-22.2 0.4-0.3 0.9-0.4 1.6-0.5 2-0.2 5.4 0 8.5 0.4 2.7 0.2 5.2 0.5 6.5 0.5 3.3 0 3.7-0.9 3.7-0.9 0.1 0.4 0.7 1.1 1.6 2 2.9 2.7 8.8 6.9 9.6 6.7z"/><path class="p" d="m141.6 344.7c-4.9 3.3-10.1 1.3-11.1 0.5-0.8-0.5-0.8-1.6-0.7-2.1 2.7 0.2 5.2 0.5 6.5 0.5 3.3 0 3.7-0.9 3.7-0.9 0.1 0.4 0.7 1.1 1.6 2z"/><path class="p" d="m145.9 363c-1 1.6-2 2.7-2.6 2.4-2.4-0.9-25.8-20.8-23.6-22.2 0.4-0.3 0.9-0.4 1.6-0.5z"/><path class="m" d="m215.9 241.3c-1.9 2.6-5.2 6.5-7.9 6.1q-0.1 0-0.3-0.1c-5.1-0.9-35.5-8.5-36.9-8.8-1.5-0.3-11.7-0.4-11.1-1.4 0.6-1.1 6.4-4.5 8-4.4 1.5 0.1 7.7 1.8 13.8 1.6 6.1-0.2 22.2 0 22.2 0l0.7-1.3 1.2-2c-0.3 6 6.8 10.8 10.3 10.3z"/><path class="k" d="m215.9 263.5c0 0-1.4 7.4 4 9.9"/><path class="k" d="m213 269.4c0 0-36 15.4-37.8 20.2-1.7 4.7 9.2 56.4 9.2 56.4"/><path class="q" d="m244.1 271.8c0 0.6-5.8 14.2-10.7 16.1-4.9 2-34.4-0.2-34.4-0.2l-14.6 9.6 3.1 28.7c0 0-6.2-32.8-6.2-35 0-1.8 40.7-13.5 51.5-25.8 4.2 0.7 7.2 0.9 7.2 0.9 0 0 4.1 5.1 4.1 5.7z"/><path class="n" d="m224.9 237c-2.5 3.5-6.6 8.1-9.5 12.2q0.5-1.1 1.1-2.3c1.9-4.5 1.9-14.1 1.9-22.4l8.7-5.8c0 0 1.9 12.5-2.2 18.3z"/><path class="r" d="m217.5 240.2q-0.6 0.5-1.2 1-0.2 0.1-0.4 0.1c-3.5 0.5-10.6-4.3-10.3-10.3 0-0.4 0.4-1.3 0.9-2.5 3-5.9 11.8-19 13.4-18.4 0 0 5.7 0.9 7.2 8.6 1.4 7.2-3.8 16.1-9.6 21.5z"/><path class="n" d="m237.5 265.9c-1.2-0.2-2.9-0.4-4.7-0.7-4.8-0.7-11.2-2-16.2-4.1 4.4-0.1 13.8-3 15-24.6 0.5 4.1 1.3 8.2 2.4 12.5 1.4 5.7 2.8 11.7 3.5 16.9z"/><path class="n" d="m235.2 194.7q-0.7 0.8-1.1 1.4c-1.7 1-3.4 2.1-4.5 2.9-0.7-0.8-1.4-1.1-2.1-1.2l3.9-4.9c1.2 0.8 2.5 1.4 3.8 1.8z"/><path class="n" d="m215.9 241.3c-1.9 2.6-5.2 6.5-7.9 6.1q-0.1 0-0.3-0.1c-3.3-4.8-3.5-11.1-3.3-14.3l1.2-2c-0.3 6 6.8 10.8 10.3 10.3z"/><path class="n" d="m244.4 182.5q-0.5 1.1-1.2 2.4c-1.1 2.2-1.3 4.5-1.5 6.3q-0.6-0.5-1.2-0.8c-2.5 1.5-4.2 3.1-5.3 4.3-3.6-1.2-7.5-4-7.8-5.6-0.3-2.3 2.5-6.3 0-6.8-2.5-0.5-3.8 3.7-3.8 3.7-2 0.2-2.8-3.2-6.1-3.2q-0.7 0-1.4 0.2c-1.6 0.4-3 1.3-3.9 2.1 0 0 3.8-5.3 9.8-4.2 0 0-0.9-1.7-4.9-1.5 8.4-2.7 13.7-1.7 16.3 1.4 2.1 2.4 7 5.5 11 1.7z"/><path class="i" d="m261.4 297.3h-29.1c0 0 23.1-6.9 23.1-52.8q0-0.8 0-1.7c-0.2-30.7-6.8-47.6-14.9-52.4 2.6-1.5 5.9-2.9 10.4-3.9q2.9-0.7 6.4-1.1c20-2 35.9 5.8 37.8 14.7 1.9 8.8-9.8 97.2-33.7 97.2z"/><path class="h" d="m255.4 244.6c0 45.8-23.1 52.7-23.1 52.7h-47.9l2-1.5 12.6-8.1 25.3-1.7c1.3-5.7 5-5.9 10.7-6.4 3.3-0.4 3.6-5.9 2.6-13.2-0.7-5.3-2.2-11.5-3.6-17.4q-1.7-6.4-2.4-12.5c-0.6-4.7-0.9-9.2-0.9-13.4-0.1-9.7 1.1-18 2.3-24q0.2-0.8 0.4-1.6 0-0.1 0-0.1c0.1-0.2 0.6-1.3 1.8-2.7 1.1-1.2 2.8-2.8 5.3-4.3q0.6 0.3 1.2 0.8c7.5 5.7 13.5 22.5 13.7 51.6q0 0.9 0 1.8z"/><path class="i" d="m246.2 365.4h-34.5c-1.2 0-1.7-1.5-0.7-2.2l8.6-6.7c3.8-3 6-7.6 6-12.5v-46.7h6.7v46.7c0 4.9 2.2 9.5 6 12.5l8.6 6.7c1 0.7 0.4 2.2-0.7 2.2z"/><g style="opacity:.3"><path class="s" d="m272.4 187.2c0 0 0.3 0.6 0.7 1.9"/><path class="t" d="m274.3 193.1c1.1 4.4 2.6 11.2 3.9 20.5 3.1 24.2-0.1 58.1-21.1 79.6"/><path class="s" d="m255.6 294.6q-0.7 0.7-1.5 1.4"/></g><path class="q" d="m232.3 297.3v12.7c-2.3 1.2-4.7 2.1-6.7 2.8v-15.5z"/><path class="q" d="m241.4 277.4c-1.6 4.9-11.3 4-12.5 7.6-2.5 7.6-3.8 4.3-13.5 5.3-5.5 0.5-9.5 4-11.9 7h-19.1l2-1.5 12.6-8.1 25.3-1.7c1.3-5.7 5-5.9 10.7-6.4 3.3-0.4 3.6-5.9 2.6-13.2-0.7-5.3-2.2-11.5-3.6-17.4q-1.7-6.4-2.4-12.5c-0.6-4.7-0.9-9.2-0.9-13.4 3.7 19.4 11.9 50.7 10.7 54.3z"/><path class="q" d="m255.4 244.6q0-0.9 0-1.8c-0.2-30.7-6.8-47.6-14.9-52.4 2.6-1.5 5.9-2.9 10.4-3.9-1.4 1.9-2.8 4.8-2.1 7.9 1.2 5.4 14.4 26.4 9.3 60.1-3.6 24.2-2.4 36.9 1.4 42.8h-27.2c0 0 23.1-6.9 23.1-52.7z"/><path class="n" d="m88.5 219.5q-0.1 1.7-0.4 3h-9.3c-2.8-1.8-7.3-5.4-10-10.9 2.5 2.7 6.8 6.1 11.2 7.1 3.8 0.9 6.6 0.5 8.5 0.8z"/><path class="f" d="m110.3 182.3c-1.1 3.8-5.9 11.2-10.3 19.1-4.8 8.6-9.1 17.8-7.4 23.7 0.4 1.5 0.6 2.6 0.6 3.3 0 2.6-1.9 1.8-3.9 0.3-2-1.4-4-3.6-4-3.6l0.2-11.4c0 0-6.5-5.9-1.2-18.9q0.5-1.2 1.2-2.5c7.3-14.8 18.2-30.2 7.8-34.6 14.3-0.9 19.2 16.6 17 24.6z"/><g style="opacity:.5"><path  d="m93.3 157.7c2.7 0.6 5.1 2.4 6.5 4.7 0.4 0.5 0.7 1.2 1 1.8 0.3 0.6 0.6 1.2 0.7 1.9 0.2 0.7 0.4 1.3 0.5 2l0.2 1 0.1 1c-0.1 2.8-1 5.5-1.9 8-0.9 2.6-2 5.1-3.2 7.6-2.3 4.9-4.7 9.8-6.9 14.8-1.1 2.5-2.1 5-2.8 7.6q-0.6 2-0.9 4c-0.2 1.3-0.1 2.6 0.3 3.8 0.1 0.2-0.1 0.5-0.3 0.6-0.2 0-0.4-0.1-0.5-0.3q0 0 0 0c-0.5-1.4-0.4-2.9-0.3-4.2q0.3-2.1 1-4.1c0.8-2.6 1.8-5.1 3-7.6 2.2-5 4.7-9.9 7-14.8 1.2-2.5 2.3-4.9 3.3-7.5 1-2.5 1.9-5.1 2-7.9l-0.1-1-0.2-1c0-0.6-0.2-1.3-0.4-2-0.2-0.6-0.5-1.2-0.7-1.9-0.3-0.6-0.6-1.2-0.9-1.8-1.5-2.3-3.8-4.1-6.5-4.7z"/></g><path class="r" d="m103.7 205.3c-4.4 11.5 0 20.2-6.6 21.5-3 0.5-4.3-1.7-4.8-4.3-0.7-3-0.3-6.6-0.3-6.6 0 0 1.1-2.8 3.5-5.6 1.9-2.3 4.6-4.4 8.2-5z"/><path class="i" d="m88.5 219.5c-0.1 2.7-0.7 5-1.9 6.2q-0.2 0.2-0.4 0.3c-3.1 2.5-5.1-2.1-5.1-2.1 0 0-8.2-4-12.3-12.3-3.1-6.3-3.8-15.2 3.5-26.5 1.1 8.1 5.5 13.6 9.9 18.8q0 0 0 0 0.9 1 1.7 1.9c3 3.7 4.6 9.3 4.6 13.7z"/><g style="opacity:.5"><path  d="m72.3 185.1c-0.7 3.5-0.8 7.1-0.5 10.6 0.4 3.5 1.3 7 3.2 9.9 1.9 3 4.4 5.5 6.7 8.2 1.2 1.4 2.3 2.9 3 4.5 0.8 1.7 1.2 3.5 1 5.4 0 0.2-0.2 0.4-0.4 0.4-0.2-0.1-0.4-0.3-0.4-0.5q0 0 0 0c0.2-1.7-0.1-3.4-0.8-5-0.7-1.6-1.8-3-2.9-4.4-2.2-2.7-4.7-5.3-6.5-8.4-1.9-3-2.8-6.6-3.1-10.1-0.3-3.6 0-7.1 0.7-10.6z"/></g><g style="opacity:.3"><path  d="m103.7 205.3q-1.9 2.1-3.5 4.5c-1.1 1.6-2.2 3.1-3.1 4.8-1.9 3.3-3.6 6.8-4.1 10.6 0 0.2-0.2 0.4-0.4 0.3-0.3 0-0.4-0.2-0.4-0.4q0 0 0-0.1c0.7-3.8 2.5-7.3 4.5-10.6 1-1.6 2.1-3.2 3.3-4.7q1.8-2.3 3.7-4.4z"/></g><path class="i" d="m101 225.4l-2.8 17.2c-0.1 0.7-0.7 1.2-1.5 1.2h-17.4c-0.7 0-1.4-0.5-1.5-1.2l-2.3-14-0.5-3.2c-0.2-1 0.5-1.8 1.5-1.8h23c1 0 1.7 0.8 1.5 1.8z"/><path class="h" d="m103.7 228.9h-31.4l0.9-4.7c0.1-1 1-1.7 2-1.7h25.6c1 0 1.9 0.7 2.1 1.7z"/><path class="n" d="m92 215.9c0 0-0.4 3.6 0.2 6.6h-4.1q0.3-1.3 0.4-3c0-4.4-1.6-10-4.6-13.7q-0.8-0.9-1.7-1.9 0 0 0 0c0.1-2.5 0.7-5.5 2.1-9.1 0.3 4.2 1.3 11.4 5.4 12.1 3.1 0.6 7.2-2.5 10.3-5.5-1.6 2.9-3.2 5.9-4.5 8.9-2.4 2.8-3.5 5.6-3.5 5.6z"/><path class="n" d="m89.7 243.8h-10.4c-0.7 0-1.4-0.5-1.5-1.2l-2.2-13.7h9c-0.3 1.9-0.5 5.5 0.1 8.3 0.6 2.2 2.5 5 5 6.6z"/><path class="g" d="m168.6 102.2h-44.6c-2.2 0-4-1.7-4-3.9v-33.2c0-2.2 1.8-4 4-4h44.6c2.2 0 4 1.8 4 4v33.2c0 2.2-1.8 3.9-4 3.9z"/><path class="a" d="m132.2 75.7v4.4c0 0.3 0.3 0.6 0.7 0.6h2.4c0.4 0 0.7-0.3 0.7-0.6v-4.4c0-0.4 0.3-0.7 0.6-0.7h0.2c0.4 0 0.7 0.3 0.7 0.7v12c0 0.3-0.3 0.6-0.7 0.6h-0.2c-0.3 0-0.6-0.3-0.6-0.6v-5c0-0.3-0.3-0.6-0.7-0.6h-2.4c-0.4 0-0.7 0.3-0.7 0.6v5c0 0.3-0.3 0.6-0.6 0.6h-0.3c-0.3 0-0.6-0.3-0.6-0.6v-12c0-0.4 0.3-0.7 0.6-0.7h0.3c0.3 0 0.6 0.3 0.6 0.7z"/><path class="a" d="m140.8 76.4h-1.2c-0.3 0-0.6-0.3-0.6-0.7v-0.1c0-0.3 0.3-0.6 0.6-0.6h5.1c0.4 0 0.7 0.3 0.7 0.6v0.1c0 0.4-0.3 0.7-0.7 0.7h-1.1c-0.4 0-0.7 0.3-0.7 0.6v10.7c0 0.3-0.2 0.6-0.6 0.6h-0.2c-0.4 0-0.7-0.3-0.7-0.6v-10.7c0-0.3-0.3-0.6-0.6-0.6z"/><path class="a" d="m154.8 82.6c-0.1-1.8-0.2-3.7-0.1-5.2h-0.1c-0.3 1.5-0.6 3-1 4.6l-1.7 6.3h-1l-1.5-6c-0.5-1.7-0.8-3.4-1.1-4.9h-0.1c0 1.5 0 3.4-0.1 5.3l-0.3 5c0 0.4-0.2 0.6-0.6 0.6h-0.1c-0.3 0-0.6-0.3-0.6-0.6l0.7-12.1c0-0.3 0.3-0.6 0.7-0.6h0.5c0.3 0 0.5 0.2 0.6 0.5l1.5 5.6c0.4 1.8 0.7 3.1 1 4.6h0.1c0.2-1.5 0.5-2.8 1-4.6l1.3-5.6c0.1-0.3 0.4-0.5 0.7-0.5h0.6c0.3 0 0.6 0.3 0.6 0.6l0.7 12.1c0 0.3-0.3 0.6-0.6 0.6h-0.2c-0.3 0-0.6-0.2-0.6-0.6z"/><path class="a" d="m159.3 75h0.2c0.3 0 0.6 0.3 0.6 0.6v10.8c0 0.4 0.3 0.6 0.7 0.6h2.4c0.4 0 0.7 0.3 0.7 0.7 0 0.3-0.3 0.6-0.7 0.6h-3.9c-0.4 0-0.7-0.3-0.7-0.6v-12.1c0-0.3 0.3-0.6 0.7-0.6z"/><path class="g" d="m188.9 64.6c1.7 0 2.1-1.1 2.1-2.1 0-0.9-0.1-1.7-0.2-2.6-0.1-0.9-0.2-1.7-0.2-2.7 0-2.7 1.7-3.8 3.8-3.8h0.4v1.5h-0.5c-1.2 0-1.7 1-1.7 2.3 0 0.8 0 1.6 0.1 2.3 0.1 0.8 0.2 1.5 0.2 2.3 0 2.3-0.8 3.2-2.1 3.5v0.1c1.3 0.4 2.1 1.2 2.1 3.6 0 0.8-0.1 1.5-0.2 2.3-0.1 0.7-0.1 1.5-0.1 2.3 0 1.4 0.4 2.3 1.8 2.3h0.4v1.6h-0.4c-2 0-3.8-1-3.8-3.9 0-0.9 0.1-1.8 0.2-2.7 0.1-0.9 0.2-1.8 0.2-2.6 0-1-0.4-2.2-2.1-2.2z"/><path class="g" d="m219.9 66.1c-1.7 0-2.1 1.2-2.1 2.2 0 0.8 0.1 1.7 0.2 2.6 0.1 0.9 0.2 1.8 0.2 2.7 0 2.9-1.8 3.9-3.8 3.9h-0.4v-1.6h0.4c1.4-0.1 1.8-0.9 1.8-2.3 0-0.8-0.1-1.6-0.1-2.3-0.1-0.8-0.2-1.5-0.2-2.3-0.1-2.4 0.8-3.2 2.1-3.6v-0.1c-1.3-0.3-2.2-1.2-2.1-3.5 0-0.8 0.1-1.5 0.2-2.3 0-0.7 0.1-1.5 0.1-2.3 0-1.4-0.5-2.1-1.8-2.3h-0.4v-1.5h0.3c2.2 0 3.9 1.1 3.9 3.8 0 1-0.1 1.8-0.2 2.7-0.1 0.9-0.2 1.7-0.2 2.6 0 1 0.4 2.1 2.1 2.1z"/><path class="d" d="m209.4 68.3v-5.8l-5-2.9-5.1 2.9v5.8l5.1 3z"/><path class="d" d="m247.5 97.4c-4.8-2.3-10.5-1.4-14.2 2.4-4.7 4.6-4.8 12-0.5 16.9l-1.9-0.3c-0.2 0-0.4 0.2-0.4 0.4-0.1 0.2 0.1 0.4 0.3 0.5l2.8 0.3q0.2 0 0.3-0.1 0.2-0.1 0.2-0.3l0.3-2.7c0-0.2-0.1-0.4-0.3-0.5-0.3 0-0.5 0.2-0.5 0.4l-0.2 1.7c-4-4.5-3.9-11.4 0.4-15.8 3.5-3.5 8.9-4.3 13.3-2.1 0.2 0.1 0.5 0 0.6-0.2 0.1-0.2 0-0.5-0.2-0.6z"/><path class="d" d="m236.9 120.1c4.7 2.3 10.4 1.4 14.2-2.3 4.6-4.7 4.8-12.1 0.5-17l1.8 0.3c0.2 0 0.4-0.2 0.5-0.4 0-0.2-0.2-0.4-0.4-0.4l-2.8-0.4q-0.2 0-0.3 0.1-0.1 0.1-0.2 0.3l-0.3 2.7c0 0.2 0.1 0.4 0.4 0.5 0.2 0 0.4-0.2 0.4-0.4l0.2-1.7c4.1 4.5 3.9 11.4-0.4 15.8-3.5 3.5-8.8 4.4-13.3 2.1-0.2-0.1-0.4 0-0.5 0.2-0.1 0.2-0.1 0.5 0.2 0.6z"/><path class="d" d="m346.3 143.1h-74.1c-1.3 0-2.4-1.1-2.4-2.5 0-1.3 1.1-2.4 2.4-2.4h74.1c1.4 0 2.5 1.1 2.5 2.4 0 1.4-1.1 2.5-2.5 2.5z"/><path class="f" d="m319.9 153.7h-47.7c-1.3 0-2.4-1.1-2.4-2.5 0-1.3 1.1-2.4 2.4-2.4h47.7c1.3 0 2.4 1.1 2.4 2.4 0 1.4-1.1 2.5-2.4 2.5z"/><path class="f" d="m319.9 165.1h-47.7c-1.3 0-2.4-1.1-2.4-2.5 0-1.3 1.1-2.4 2.4-2.4h47.7c1.3 0 2.4 1.1 2.4 2.4 0 1.4-1.1 2.5-2.4 2.5z"/><path class="f" d="m83.7 102.4h-38.5c-1.4 0-2.5-1.1-2.5-2.4 0-1.4 1.1-2.5 2.5-2.5h38.5c1.3 0 2.4 1.1 2.4 2.5 0 1.3-1.1 2.4-2.4 2.4z"/><path class="d" d="m69.1 113.1h-23.9c-1.4 0-2.5-1.1-2.5-2.5 0-1.3 1.1-2.4 2.5-2.4h23.9c1.4 0 2.5 1.1 2.5 2.4 0 1.4-1.1 2.5-2.5 2.5z"/><path class="d" d="m69.1 124.5h-23.9c-1.4 0-2.5-1.1-2.5-2.5 0-1.3 1.1-2.4 2.5-2.4h23.9c1.4 0 2.5 1.1 2.5 2.4 0 1.4-1.1 2.5-2.5 2.5z"/><path class="r" d="m312.9 279.7c-2.4 6.9-5.2 13-8.2 18.5-10.4 18.9-22.4 30.9-22.8 48.6 0 0-3.8-16.7-0.8-35.6 1.7-10.6 5.5-22 13.3-31.5 21.6-26.6 18.4-50.8 18.4-50.8 0 0 10.8 19.8 0.1 50.8z"/><g style="opacity:.3"><path  d="m287.5 326.1c-0.3-2.2-0.3-4.4-0.1-6.5q0.4-3.3 1.2-6.4c1.1-4.2 2.7-8.2 4.6-12 0.9-2 2-3.8 3.1-5.6l3.5-5.4c2.2-3.6 4.1-7.5 5.7-11.4q2.3-5.9 4-12.1 1.7-6.2 2.8-12.5c0.7-4.2 1.3-8.4 1.5-12.7 0.2-2.1 0.2-4.2 0.1-6.4 0-1-0.1-2.1-0.3-3.1-0.1-1.1-0.3-2.2-0.8-3.1 0.5 0.9 0.7 2 0.9 3 0.2 1.1 0.3 2.2 0.3 3.2 0.2 2.2 0.1 4.3 0.1 6.4-0.2 4.3-0.7 8.6-1.4 12.8q-1.1 6.3-2.7 12.5-1.6 6.2-3.9 12.2c-1.6 4-3.4 7.9-5.6 11.6l-3.5 5.4c-1 1.8-2.1 3.6-3.1 5.6-1.9 3.7-3.4 7.7-4.5 11.8q-0.8 3.1-1.1 6.2c-0.2 2.1-0.3 4.3 0 6.3 0 0.3-0.1 0.5-0.4 0.5-0.2 0-0.4-0.1-0.4-0.3z"/></g><path class="n" d="m304.7 298.2c-10.4 18.9-22.4 30.9-22.8 48.6 0 0-3.8-16.7-0.8-35.6 6.7-2.7 16.2-7.2 23.6-13z"/><path class="f" d="m287.9 365.4c0 0-7.6-12.9 10.3-28.9 17.9-15.9 31.9-37 29.2-54.1-17.2 19.9-62.7 48.1-49.8 83z"/><g style="opacity:.3"><path  d="m327.4 282.4c-1.7 3.8-4 7.3-6.5 10.6-2.5 3.3-5.2 6.4-8.1 9.3-2.9 3-6.1 5.7-9.3 8.3-3.1 2.7-6 5.7-8.5 8.9-5.1 6.5-9.1 13.9-11.5 21.7-1.1 4-1.9 8-2 12.1-0.2 4.1 0.4 8.3 2 12 0.1 0.2 0 0.4-0.2 0.5-0.2 0.1-0.5 0-0.6-0.2-1.6-3.9-2.1-8.1-2-12.3 0.2-4.2 1-8.3 2.3-12.2 2.4-8 6.5-15.4 11.7-21.8 2.5-3.3 5.4-6.3 8.6-8.9 3.2-2.7 6.4-5.3 9.3-8.2 2.9-2.9 5.7-6 8.2-9.3 2.5-3.3 4.8-6.7 6.6-10.5z"/></g><path class="r" d="m31.1 271.8c0 0-9.4-8.5-14.3-29.8 28.6 24.2 35.6 45.8 35.6 45.8z"/><g style="opacity:.3"><path  d="m16.8 242q5.9 8.5 11.6 17.3 2.9 4.3 5.6 8.8c1.7 3 3.5 6 4.9 9.2 0.1 0.2 0.1 0.4-0.2 0.5-0.2 0.1-0.4 0-0.5-0.2q0 0 0 0c-1.4-3.2-3-6.2-4.8-9.2q-2.6-4.5-5.3-8.9-5.5-8.9-11.3-17.5z"/></g><path class="f" d="m51.8 283.7c-5.2-4.6-12.8-9.2-20-14.1-9.7-6.6-18.6-13.8-20.3-22.6-3.8 31.8 33.2 46.1 33.2 46.1l0.1 0.1 13.4 19.6c0 0 5.5-18.3-6.4-29.1z"/><g style="opacity:.3"><path  d="m11.5 247c0 3.5 1.1 7 2.5 10.2 1.6 3.1 3.7 6 6.2 8.5 2.5 2.5 5.4 4.5 8.4 6.4 3 2 6 3.8 8.9 5.8 5.8 4 11.4 8.6 15.3 14.6 4 6 5.8 13.2 5.8 20.3 0 0.2-0.1 0.4-0.4 0.4-0.2 0-0.4-0.2-0.4-0.4 0.1-7-1.6-14.1-5.5-20-3.8-5.9-9.2-10.5-15-14.6-2.9-2-5.9-3.9-8.9-5.8-2.9-2-5.8-4-8.3-6.6-2.5-2.5-4.6-5.4-6.1-8.6-1.5-3.2-2.5-6.7-2.5-10.2z"/></g><path class="b" d="m315.2 379.6h-248.6c-3.9 0-7.1-3.2-7.1-7.1 0-3.9 3.2-7.1 7.1-7.1h248.6c3.9 0 7.1 3.2 7.1 7.1 0 3.9-3.2 7.1-7.1 7.1z"/></svg>