<svg version="1.2" xmlns="http://www.w3.org/2000/svg" viewBox="0 0 361 392" width="361" height="392">
	<title>desktop-illustration-svg</title>
	<style>
		.s0 { fill: #eaf9f8 } 
		.s1 { fill: #e03c03 } 
		.s2 { fill: #ff6224 } 
		.s3 { fill: #ffc947 } 
		.s4 { fill: #20c3c5 } 
		.s5 { fill: #ffffff } 
		.s6 { fill: #383873 } 
		.s7 { fill: #86bfbc } 
		.s8 { fill: #b8e3e2 } 
		.s9 { fill: #9fccc9 } 
		.s10 { opacity: .1;fill: none;stroke: #000000;stroke-linecap: round;stroke-miterlimit:10;stroke-width: .8 } 
		.s11 { fill: #382424 } 
		.s12 { fill: #ffad94 } 
		.s13 { opacity: .3;fill: #000000 } 
		.s14 { fill: #0c2059 } 
		.s15 { fill: #2e4780 } 
		.s16 { opacity: .1;fill: #000000 } 
		.s17 { fill: #169799 } 
		.s18 { fill: none;stroke: #000000;stroke-linecap: round;stroke-miterlimit:10;stroke-width: .8 } 
		.s19 { fill: none;stroke: #000000;stroke-linecap: round;stroke-miterlimit:10;stroke-width: .8;stroke-dasharray: 4.152499999999999,4.152499999999999 } 
		.s20 { fill: #000000 } 
	</style>
	<g id="OBJECTS">
		<g id="Layer">
			
			<g id="Layer">
				<path id="Layer" class="s1" d="m103 256.1h-44.3c-1.7 0-3.1-1.4-3.1-3.1 0-1.8 1.4-3.2 3.1-3.2h44.3c1.7 0 3.1 1.4 3.1 3.2 0 1.7-1.4 3.1-3.1 3.1z"/>
				<path id="Layer" class="s2" d="m230.4 256.1h-126.6c-1.7 0-3.1-1.4-3.1-3.1 0-1.8 1.4-3.2 3.1-3.2h126.6z"/>
				<path id="Layer" class="s3" d="m189.7 312.2c0 1.9-1.5 3.4-3.4 3.4-1.9 0-3.4-1.5-3.4-3.4 0-1.9 1.5-3.4 3.4-3.4 1.9 0 3.4 1.5 3.4 3.4z"/>
			</g>
			<g id="Layer">
				<path id="Layer" class="s4" d="m144 155.9h-44.6c-2.2 0-4-1.8-4-4v-33.2c0-2.2 1.8-3.9 4-3.9h44.6c2.2 0 4 1.7 4 3.9v33.2c0 2.2-1.8 4-4 4z"/>
				<path id="Layer" fill-rule="evenodd" class="s5" d="m134.4 134.2v2.5c0 0.7-0.6 1.2-1.3 1.2h-1.5q-0.4 1.5-1.1 2.8l1 1c0.5 0.5 0.5 1.3 0 1.8l-1.8 1.7c-0.5 0.5-1.3 0.5-1.8 0l-0.9-0.9q-1.4 0.8-2.9 1.1v1.3c0 0.7-0.5 1.3-1.2 1.3h-2.6c-0.7 0-1.2-0.6-1.2-1.3v-1.4q-1.5-0.4-2.8-1.2l-1 1c-0.4 0.5-1.2 0.5-1.7 0l-1.8-1.8c-0.5-0.5-0.5-1.3 0-1.8l1.1-1.1q-0.6-1.3-0.9-2.7h-1.7c-0.7 0-1.2-0.5-1.2-1.2v-2.5c0-0.7 0.5-1.3 1.2-1.3h1.9q0.4-1.3 1.1-2.4l-1.4-1.3c-0.5-0.5-0.5-1.3 0-1.8l1.8-1.8c0.5-0.5 1.3-0.5 1.8 0l1.5 1.5q1.1-0.6 2.3-0.9v-2.1c0-0.7 0.6-1.2 1.2-1.2h2.6c0.7 0 1.2 0.5 1.2 1.2v2q1.3 0.4 2.4 1l1.4-1.3c0.5-0.5 1.2-0.5 1.7 0l1.8 1.8c0.5 0.4 0.5 1.2 0 1.7l-1.2 1.3q0.7 1.2 1.1 2.5h1.6c0.7 0 1.3 0.6 1.3 1.3zm-6.3 2.7c0.8-4.5-3-8.4-7.5-7.5-2.6 0.5-4.6 2.5-5.1 5-0.8 4.5 3.1 8.4 7.6 7.5 2.5-0.4 4.5-2.5 5-5z"/>
			</g>
			<g id="Layer">
				<path id="Layer" class="s2" d="m211.2 133.2h-44.6c-2.2 0-4-1.8-4-4v-33.2c0-2.2 1.8-4 4-4h44.6c2.2 0 4 1.8 4 4v33.2c0 2.2-1.8 4-4 4z"/>
				<g id="Layer">
					<g id="Layer">
						<g id="Layer">
							<path id="Layer" class="s5" d="m180 119.5c-0.3 0-0.6-0.1-0.9-0.4l-5.5-5.9c-0.5-0.5-0.5-1.3 0-1.9l5.6-6c0.5-0.5 1.3-0.5 1.7 0 0.5 0.5 0.5 1.4 0 1.9l-4.7 5.1 4.6 5c0.5 0.5 0.5 1.3 0 1.8-0.2 0.3-0.5 0.4-0.8 0.4z"/>
						</g>
						<g id="Layer">
							<path id="Layer" class="s5" d="m197.7 119.5c-0.3 0-0.6-0.1-0.8-0.4-0.5-0.5-0.5-1.3 0-1.8l4.6-5-4.7-5.1c-0.5-0.5-0.5-1.4 0-1.9 0.5-0.5 1.2-0.5 1.7 0l5.6 6c0.3 0.3 0.4 0.6 0.4 1 0 0.3-0.1 0.7-0.4 0.9l-5.5 5.9c-0.2 0.3-0.5 0.4-0.9 0.4z"/>
						</g>
					</g>
					<g id="Layer">
						<path id="Layer" class="s5" d="m186.1 121.1q-0.2 0-0.5-0.1c-0.6-0.2-0.9-1-0.6-1.7l5.5-14.4c0.2-0.7 0.9-1 1.6-0.8 0.6 0.3 0.9 1.1 0.6 1.8l-5.5 14.4c-0.1 0.5-0.6 0.8-1.1 0.8z"/>
					</g>
				</g>
			</g>
			<g id="Layer">
				<g id="Layer">
					<path id="Layer" class="s5" d="m251.4 141.1h-110.6v-3.4c0-0.9 0.7-1.7 1.6-1.7h107.4c0.9 0 1.6 0.8 1.6 1.7 0 0 0 3.4 0 3.4z"/>
					<path id="Layer" class="s6" d="m248.3 200.1h-104.5c-1.7 0-3-1.4-3-3.1v-55.9h110.6v55.9c0 1.7-1.4 3.1-3.1 3.1z"/>
					<g id="Layer">
						<g id="Layer">
							<path id="Layer" class="s2" d="m246.1 138.6c0 0.4-0.3 0.7-0.8 0.7-0.4 0-0.7-0.3-0.7-0.7 0-0.5 0.3-0.8 0.7-0.8 0.5 0 0.8 0.3 0.8 0.8z"/>
							<path id="Layer" class="s2" d="m240.8 138.6c0 0.4-0.4 0.7-0.8 0.7-0.4 0-0.8-0.3-0.8-0.7 0-0.5 0.4-0.8 0.8-0.8 0.4 0 0.8 0.3 0.8 0.8z"/>
							<path id="Layer" class="s2" d="m235.4 138.6c0 0.4-0.3 0.7-0.8 0.7-0.4 0-0.7-0.3-0.7-0.7 0-0.5 0.3-0.8 0.7-0.8 0.5 0 0.8 0.3 0.8 0.8z"/>
						</g>
					</g>
					<path id="Layer" class="s4" d="m207.9 149.1h-61.4c-0.6 0-1.1-0.5-1.1-1.1 0-0.6 0.5-1.1 1.1-1.1h61.4c0.6 0 1.1 0.5 1.1 1.1 0 0.6-0.5 1.1-1.1 1.1z"/>
					<path id="Layer" class="s4" d="m207.9 155.9h-61.4c-0.6 0-1.1-0.5-1.1-1.1 0-0.6 0.5-1.1 1.1-1.1h61.4c0.6 0 1.1 0.5 1.1 1.1 0 0.6-0.5 1.1-1.1 1.1z"/>
					<path id="Layer" class="s4" d="m178.6 162.7h-32.1c-0.6 0-1.1-0.5-1.1-1.1 0-0.6 0.5-1.1 1.1-1.1h32.1c0.6 0 1.1 0.5 1.1 1.1 0 0.6-0.5 1.1-1.1 1.1z"/>
					<path id="Layer" class="s2" d="m207.9 176.3h-61.4c-0.6 0-1.1-0.5-1.1-1.1 0-0.6 0.5-1.1 1.1-1.1h61.4c0.6 0 1.1 0.5 1.1 1.1 0 0.6-0.5 1.1-1.1 1.1z"/>
					<path id="Layer" class="s2" d="m178.6 183.1h-32.1c-0.6 0-1.1-0.5-1.1-1.1 0-0.6 0.5-1.1 1.1-1.1h32.1c0.6 0 1.1 0.5 1.1 1.1 0 0.6-0.5 1.1-1.1 1.1z"/>
					<path id="Layer" class="s4" d="m178.6 189.9h-32.1c-0.6 0-1.1-0.5-1.1-1.1 0-0.6 0.5-1 1.1-1h32.1c0.6 0 1.1 0.4 1.1 1 0 0.6-0.5 1.1-1.1 1.1z"/>
					<path id="Layer" class="s5" d="m207.9 162.7h-23c-0.6 0-1.1-0.5-1.1-1.1 0-0.6 0.5-1.1 1.1-1.1h23c0.6 0 1.1 0.5 1.1 1.1 0 0.6-0.5 1.1-1.1 1.1z"/>
					<path id="Layer" class="s2" d="m238.5 147.4l-16.4 16.3c-0.4 0.4-1.1 0.4-1.5 0-0.4-0.4-0.4-1.1 0-1.5l16.3-16.3c0.5-0.4 1.1-0.4 1.6 0 0.4 0.4 0.4 1.1 0 1.5z"/>
					<path id="Layer" class="s2" d="m238.9 180.5c-1.2 5.2-6.4 8.4-11.6 7.2-5.2-1.3-8.4-6.5-7.1-11.6 1.2-5.2 6.4-8.4 11.5-7.2 5.2 1.2 8.4 6.4 7.2 11.6z"/>
					<path id="Layer" class="s4" d="m228.3 185c0 3-2.5 5.4-5.5 5.4-3 0-5.4-2.4-5.4-5.4 0-3 2.4-5.5 5.4-5.5 3 0 5.5 2.5 5.5 5.5z"/>
				</g>
				<path id="Layer" class="s6" d="m140.8 194.1v19.5l17.8-17.9"/>
			</g>
			<g id="Layer">
				<path id="Layer" class="s7" d="m121.7 218.8h39.3l14.2 27.4h-39.3z"/>
				<path id="Layer" class="s5" d="m136.7 244.2l-11.8-22.7c-0.2-0.4 0.1-1 0.7-1h33.9c0.3 0 0.5 0.1 0.7 0.4l11.7 22.6c0.3 0.5-0.1 1-0.6 1h-34c-0.2 0-0.5-0.1-0.6-0.3z"/>
				<path id="Layer" class="s8" d="m135.9 246.2h31.8v3.6h-31.8z"/>
				<path id="Layer" class="s9" d="m195 246.2h-31.4c-1 0-1.8 0.8-1.8 1.8 0 1 0.8 1.8 1.8 1.8h31.4c1 0 1.8-0.8 1.8-1.8 0-1-0.8-1.8-1.8-1.8z"/>
				<path id="Layer" class="s8" d="m135.9 246.2l-14.2-27.4-0.7 0.6c-0.5 0.3-0.6 1-0.3 1.5l15.2 28.9c0 0 0-3.6 0-3.6z"/>
				<path id="Layer" class="s9" d="m146.7 247.9h3.5v0.6h-3.5z"/>
				<path id="Layer" class="s9" d="m151.1 247.9h3.5v0.6h-3.5z"/>
				<path id="Layer" class="s9" d="m155.5 247.9h3.5v0.6h-3.5z"/>
			</g>
			<g id="Layer">
				<path id="Layer" class="s6" d="m207.5 299.7c0 0-32.6 25.3-37.7 31.8-2 2.4-5.4 6.7-8.9 11-5.8 7.2-11.9 14.7-12.6 14.9-1.2 0.3-11-7.1-11.3-8.7-0.2-1 8.7-16.3 16.4-28.6 4.7-7.4 9-13.8 10.5-15.2 3.9-3.6 28.1-16.5 28.1-16.5z"/>
				<path id="Layer" class="s10" d="m145.3 352c0 0 30.5-43.3 45.7-50.6"/>
				<path id="Layer" class="s11" d="m241.4 188.5q-0.5 1.1-1.2 2.4c-2.3 4.5-0.6 9.1-3.3 10.3q-0.2 0.1-0.5 0.1c-3.5 0.8-11.6-3.8-12-6.2-0.3-2.3 2.5-6.3 0-6.8-2.5-0.5-3.8 3.7-3.8 3.7-2 0.2-2.8-3.2-6.1-3.2q-0.7 0-1.4 0.2c-1.6 0.4-3 1.3-3.9 2.1-0.6 0.5-1 1-1 1 0 0-3-1.9-2.8-5.6 0.2-5.9 2.4-10.2 7.6-11.1 0.6-6.6 6-10.1 13.2-10.3 6.3-0.2 7.3 5.5 7.4 6.9 0-1.1-0.3-4.5-1.8-6.9 3.2-0.1 5.9 2.1 5.2 9.5 0.7-2.2 3.3-3.6 5.3-2-1.9 0-3.6 3.1-3.6 3.1 0 0 2.1 1.3 3.6 3.9 1.2 2.1 0.7 5.1-0.9 8.9z"/>
				<path id="Layer" class="s12" d="m236.9 201.2l-0.1 1.1-0.3 3.8c0 0-5.8 5-9.1 0q0-0.1-0.1-0.1c-1-1.5-1.9-2.1-2.8-2.2-1.8-0.2-3.3 1.6-4.8-0.3-4.3-5.6-6.1-12-6.6-14.5q0.7-0.2 1.4-0.2c3.3 0 4.1 3.4 6.1 3.2 0 0 1.3-4.2 3.8-3.7 2.5 0.5-0.3 4.5 0 6.8 0.2 1.1 1.9 2.6 4 3.8 2.5 1.5 5.6 2.7 7.6 2.5q0.2 0 0.4-0.1 0.3 0 0.5-0.1z"/>
				<path id="Layer" class="s13" d="m237.8 208.3c-2.6 1.8-7.4 2.1-7.4 2.1l-4-0.6c0 0-1.6-2.4-0.8-3.7 0.1-0.3 0.5-0.6 1-1.1 1.1-0.8 2.8-1.9 4.5-2.9 1.8-0.9 3.7-1.6 5.1-1.7 3.3-0.2 4.2 6.1 1.6 7.9z"/>
				<path id="Layer" class="s4" d="m237 272.1c-5.8 1.2-18.2-2.3-24.2-5-1.7-0.7-2.9-1.5-3.2-2-1.1-2 0-3.5 2.8-9.9q0.5-1.1 1.1-2.3c1.9-4.5 1.9-14.1 1.9-22.4-0.1-7.1-0.1-13.3 1-14.3 2.5-2.4 14.7-10.1 14.7-10.1l2.4 12.7c0 0 1.4 6.4 2.9 14.8 2.6 15.4 5.6 37.6 0.6 38.5z"/>
				<path id="Layer" class="s6" d="m241.1 277.8c0 0.6-5.8 14.2-10.7 16.1-4.9 2-34.4-0.2-34.4-0.2l-14.6 9.6 3.1 28.7 2.1 20 0.1 0.7c-4.5 2.9-15.7 3.7-16.9 1.1q-0.1 0-0.1 0c-1.1-2.5-19-56.4-12-65.7 7-9.3 51.9-23 51.9-23 1.2 0.8 2.5 1.5 4 2 5 2.1 11.4 3.4 16.2 4.1 1.8 0.3 3.5 0.5 4.7 0.7 1.6 0.2 2.5 0.2 2.5 0.2 0 0 4.1 5.1 4.1 5.7z"/>
				<path id="Layer" class="s14" d="m188.5 371.4h-37.9c-0.2-0.6 0-1.3 0.6-2 1.6-1.9 5.4-3.7 9.1-5.3 3.6-1.5 6.9-2.9 8.1-3.8 2.7-2.1 1.4-6.2 1.4-6.5 0.4 0.9 1.9 1.4 4 1.5 4 0.3 9.9-0.7 12.9-2.6l-0.1-0.7c1.1 2.2 1.7 12.8 1.8 17.4 0.1 1.2 0.1 2 0.1 2z"/>
				<path id="Layer" class="s15" d="m173.8 355.3c-0.2 1.8-0.4 4.7-0.9 5.5-0.8 1.2-9.2 5.3-10.4 4.9-0.7-0.3-1.6-1.1-2.2-1.6 3.6-1.5 6.9-2.9 8.1-3.8 2.7-2.1 1.4-6.2 1.4-6.5 0.4 0.9 1.9 1.4 4 1.5z"/>
				<path id="Layer" class="s15" d="m188.5 371.4h-37.9c-0.2-0.6 0-1.3 0.6-2h37.2c0.1 1.2 0.1 2 0.1 2z"/>
				<path id="Layer" class="s14" d="m148.3 357.4c-0.1 0-2.9 7.6-5.4 11.6-1 1.6-2 2.7-2.6 2.4-2.4-0.9-25.8-20.8-23.6-22.2 0.4-0.3 0.9-0.4 1.6-0.5 2-0.2 5.4 0 8.5 0.4 2.7 0.2 5.2 0.5 6.5 0.5 3.3 0 3.7-0.9 3.7-0.9 0.1 0.4 0.7 1.1 1.6 2 2.9 2.7 8.8 6.9 9.6 6.7z"/>
				<path id="Layer" class="s15" d="m138.6 350.7c-4.9 3.3-10.1 1.3-11.1 0.5-0.8-0.5-0.8-1.6-0.7-2.1 2.7 0.2 5.2 0.5 6.5 0.5 3.3 0 3.7-0.9 3.7-0.9 0.1 0.4 0.7 1.1 1.6 2z"/>
				<path id="Layer" class="s15" d="m142.9 369c-1 1.6-2 2.7-2.6 2.4-2.4-0.9-25.8-20.8-23.6-22.2 0.4-0.3 0.9-0.4 1.6-0.5z"/>
				<path id="Layer" class="s12" d="m212.9 247.3c-1.9 2.6-5.2 6.5-7.9 6.1q-0.1 0-0.3-0.1c-5.1-0.9-35.5-8.5-36.9-8.8-1.5-0.3-11.7-0.4-11.1-1.4 0.6-1.1 6.4-4.5 8-4.4 1.5 0.1 7.7 1.8 13.8 1.6 6.1-0.2 22.2 0 22.2 0l0.7-1.3 1.2-2c-0.3 6 6.8 10.8 10.3 10.3z"/>
				<path id="Layer" class="s10" d="m212.9 269.5c0 0-1.4 7.4 4 9.9"/>
				<path id="Layer" class="s10" d="m210 275.4c0 0-36 15.4-37.8 20.2-1.7 4.7 9.2 56.4 9.2 56.4"/>
				<path id="Layer" class="s16" d="m241.1 277.8c0 0.6-5.8 14.2-10.7 16.1-4.9 2-34.4-0.2-34.4-0.2l-14.6 9.6 3.1 28.7c0 0-6.2-32.8-6.2-35 0-1.8 40.7-13.5 51.5-25.8 4.2 0.7 7.2 0.9 7.2 0.9 0 0 4.1 5.1 4.1 5.7z"/>
				<path id="Layer" class="s13" d="m221.9 243c-2.5 3.5-6.6 8.1-9.5 12.2q0.5-1.1 1.1-2.3c1.9-4.5 1.9-14.1 1.9-22.4l8.7-5.8c0 0 1.9 12.5-2.2 18.3z"/>
				<path id="Layer" class="s17" d="m214.5 246.2q-0.6 0.5-1.2 1-0.2 0.1-0.4 0.1c-3.5 0.5-10.6-4.3-10.3-10.3 0-0.4 0.4-1.3 0.9-2.5 3-5.9 11.8-19 13.4-18.4 0 0 5.7 0.9 7.2 8.6 1.4 7.2-3.8 16.1-9.6 21.5z"/>
				<path id="Layer" class="s13" d="m234.5 271.9c-1.2-0.2-2.9-0.4-4.7-0.7-4.8-0.7-11.2-2-16.2-4.1 4.4-0.1 13.8-3 15-24.6 0.5 4.1 1.3 8.2 2.4 12.5 1.4 5.7 2.8 11.7 3.5 16.9z"/>
				<path id="Layer" class="s13" d="m232.2 200.7q-0.7 0.8-1.1 1.4c-1.7 1-3.4 2.1-4.5 2.9-0.7-0.8-1.4-1.1-2.1-1.2l3.9-4.9c1.2 0.8 2.5 1.4 3.8 1.8z"/>
				<path id="Layer" class="s13" d="m212.9 247.3c-1.9 2.6-5.2 6.5-7.9 6.1q-0.1 0-0.3-0.1c-3.3-4.8-3.5-11.1-3.3-14.3l1.2-2c-0.3 6 6.8 10.8 10.3 10.3z"/>
				<path id="Layer" class="s13" d="m241.4 188.5q-0.5 1.1-1.2 2.4c-1.1 2.2-1.3 4.5-1.5 6.3q-0.6-0.5-1.2-0.8c-2.5 1.5-4.2 3.1-5.3 4.3-3.6-1.2-7.5-4-7.8-5.6-0.3-2.3 2.5-6.3 0-6.8-2.5-0.5-3.8 3.7-3.8 3.7-2 0.2-2.8-3.2-6.1-3.2q-0.7 0-1.4 0.2c-1.6 0.4-3 1.3-3.9 2.1 0 0 3.8-5.3 9.8-4.2 0 0-0.9-1.7-4.9-1.5 8.4-2.7 13.7-1.7 16.3 1.4 2.1 2.4 7 5.5 11 1.7z"/>
			</g>
			<g id="Layer">
				<path id="Layer" class="s8" d="m258.4 303.3h-29.1c0 0 23.1-6.9 23.1-52.8q0-0.8 0-1.7c-0.2-30.7-6.8-47.6-14.9-52.4 2.6-1.5 5.9-2.9 10.4-3.9q2.9-0.7 6.4-1.1c20-2 35.9 5.8 37.8 14.7 1.9 8.8-9.8 97.2-33.7 97.2z"/>
				<path id="Layer" class="s7" d="m252.4 250.6c0 45.8-23.1 52.7-23.1 52.7h-47.9l2-1.5 12.6-8.1 25.3-1.7c1.3-5.7 5-5.9 10.7-6.4 3.3-0.4 3.6-5.9 2.6-13.2-0.7-5.3-2.2-11.5-3.6-17.4q-1.7-6.4-2.4-12.5c-0.6-4.7-0.9-9.2-0.9-13.4-0.1-9.7 1.1-18 2.3-24q0.2-0.8 0.4-1.6 0-0.1 0-0.1c0.1-0.2 0.6-1.3 1.8-2.7 1.1-1.2 2.8-2.8 5.3-4.3q0.6 0.3 1.2 0.8c7.5 5.7 13.5 22.5 13.7 51.6q0 0.9 0 1.8z"/>
				<path id="Layer" class="s8" d="m243.2 371.4h-34.5c-1.2 0-1.7-1.5-0.7-2.2l8.6-6.7c3.8-3 6-7.6 6-12.5v-46.7h6.7v46.7c0 4.9 2.2 9.5 6 12.5l8.6 6.7c1 0.7 0.4 2.2-0.7 2.2z"/>
				<g id="Layer" style="opacity: .3">
					<g id="Layer">
						<path id="Layer" class="s18" d="m269.4 193.2c0 0 0.3 0.6 0.7 1.9"/>
						<path id="Layer" class="s19" d="m271.3 199.1c1.1 4.4 2.6 11.2 3.9 20.5 3.1 24.2-0.1 58.1-21.1 79.6"/>
						<path id="Layer" class="s18" d="m252.6 300.6q-0.7 0.7-1.5 1.4"/>
					</g>
				</g>
				<path id="Layer" class="s16" d="m229.3 303.3v12.7c-2.3 1.2-4.7 2.1-6.7 2.8v-15.5z"/>
				<path id="Layer" class="s16" d="m238.4 283.4c-1.6 4.9-11.3 4-12.5 7.6-2.5 7.6-3.8 4.3-13.5 5.3-5.5 0.5-9.5 4-11.9 7h-19.1l2-1.5 12.6-8.1 25.3-1.7c1.3-5.7 5-5.9 10.7-6.4 3.3-0.4 3.6-5.9 2.6-13.2-0.7-5.3-2.2-11.5-3.6-17.4q-1.7-6.4-2.4-12.5c-0.6-4.7-0.9-9.2-0.9-13.4 3.7 19.4 11.9 50.7 10.7 54.3z"/>
				<path id="Layer" class="s16" d="m252.4 250.6q0-0.9 0-1.8c-0.2-30.7-6.8-47.6-14.9-52.4 2.6-1.5 5.9-2.9 10.4-3.9-1.4 1.9-2.8 4.8-2.1 7.9 1.2 5.4 14.4 26.4 9.3 60.1-3.6 24.2-2.4 36.9 1.4 42.8h-27.2c0 0 23.1-6.9 23.1-52.7z"/>
			</g>
			<path id="Layer" class="s13" d="m85.5 225.5q-0.1 1.7-0.4 3h-9.3c-2.8-1.8-7.3-5.4-10-10.9 2.5 2.7 6.8 6.1 11.2 7.1 3.8 0.9 6.6 0.5 8.5 0.8z"/>
			<g id="Layer">
				<path id="Layer" class="s4" d="m107.3 188.3c-1.1 3.8-5.9 11.2-10.3 19.1-4.8 8.6-9.1 17.8-7.4 23.7 0.4 1.5 0.6 2.6 0.6 3.3 0 2.6-1.9 1.8-3.9 0.3-2-1.4-4-3.6-4-3.6l0.2-11.4c0 0-6.5-5.9-1.2-18.9q0.5-1.2 1.2-2.5c7.3-14.8 18.2-30.2 7.8-34.6 14.3-0.9 19.2 16.6 17 24.6z"/>
				<g id="Layer" style="opacity: .5">
					<path id="Layer" class="s20" d="m90.3 163.7c2.7 0.6 5.1 2.4 6.5 4.7 0.4 0.5 0.7 1.2 1 1.8 0.3 0.6 0.6 1.2 0.7 1.9 0.2 0.7 0.4 1.3 0.5 2l0.2 1 0.1 1c-0.1 2.8-1 5.5-1.9 8-0.9 2.6-2 5.1-3.2 7.6-2.3 4.9-4.7 9.8-6.9 14.8-1.1 2.5-2.1 5-2.8 7.6q-0.6 2-0.9 4c-0.2 1.3-0.1 2.6 0.3 3.8 0.1 0.2-0.1 0.5-0.3 0.6-0.2 0-0.4-0.1-0.5-0.3q0 0 0 0c-0.5-1.4-0.4-2.9-0.3-4.2q0.3-2.1 1-4.1c0.8-2.6 1.8-5.1 3-7.6 2.2-5 4.7-9.9 7-14.8 1.2-2.5 2.3-4.9 3.3-7.5 1-2.5 1.9-5.1 2-7.9l-0.1-1-0.2-1c0-0.6-0.2-1.3-0.4-2-0.2-0.6-0.5-1.2-0.7-1.9-0.3-0.6-0.6-1.2-0.9-1.8-1.5-2.3-3.8-4.1-6.5-4.7z"/>
				</g>
				<path id="Layer" class="s17" d="m100.7 211.3c-4.4 11.5 0 20.2-6.6 21.5-3 0.5-4.3-1.7-4.8-4.3-0.7-3-0.3-6.6-0.3-6.6 0 0 1.1-2.8 3.5-5.6 1.9-2.3 4.6-4.4 8.2-5z"/>
				<path id="Layer" class="s8" d="m85.5 225.5c-0.1 2.7-0.7 5-1.9 6.2q-0.2 0.2-0.4 0.3c-3.1 2.5-5.1-2.1-5.1-2.1 0 0-8.2-4-12.3-12.3-3.1-6.3-3.8-15.2 3.5-26.5 1.1 8.1 5.5 13.6 9.9 18.8q0 0 0 0 0.9 1 1.7 1.9c3 3.7 4.6 9.3 4.6 13.7z"/>
				<g id="Layer" style="opacity: .5">
					<path id="Layer" class="s20" d="m69.3 191.1c-0.7 3.5-0.8 7.1-0.5 10.6 0.4 3.5 1.3 7 3.2 9.9 1.9 3 4.4 5.5 6.7 8.2 1.2 1.4 2.3 2.9 3 4.5 0.8 1.7 1.2 3.5 1 5.4 0 0.2-0.2 0.4-0.4 0.4-0.2-0.1-0.4-0.3-0.4-0.5q0 0 0 0c0.2-1.7-0.1-3.4-0.8-5-0.7-1.6-1.8-3-2.9-4.4-2.2-2.7-4.7-5.3-6.5-8.4-1.9-3-2.8-6.6-3.1-10.1-0.3-3.6 0-7.1 0.7-10.6z"/>
				</g>
				<g id="Layer" style="opacity: .3">
					<path id="Layer" class="s20" d="m100.7 211.3q-1.9 2.1-3.5 4.5c-1.1 1.6-2.2 3.1-3.1 4.8-1.9 3.3-3.6 6.8-4.1 10.6 0 0.2-0.2 0.4-0.4 0.3-0.3 0-0.4-0.2-0.4-0.4q0 0 0-0.1c0.7-3.8 2.5-7.3 4.5-10.6 1-1.6 2.1-3.2 3.3-4.7q1.8-2.3 3.7-4.4z"/>
				</g>
				<path id="Layer" class="s8" d="m98 231.4l-2.8 17.2c-0.1 0.7-0.7 1.2-1.5 1.2h-17.4c-0.7 0-1.4-0.5-1.5-1.2l-2.3-14-0.5-3.2c-0.2-1 0.5-1.8 1.5-1.8h23c1 0 1.7 0.8 1.5 1.8z"/>
				<path id="Layer" class="s7" d="m100.7 234.9h-31.4l0.9-4.7c0.1-1 1-1.7 2-1.7h25.6c1 0 1.9 0.7 2.1 1.7z"/>
				<path id="Layer" class="s13" d="m89 221.9c0 0-0.4 3.6 0.2 6.6h-4.1q0.3-1.3 0.4-3c0-4.4-1.6-10-4.6-13.7q-0.8-0.9-1.7-1.9 0 0 0 0c0.1-2.5 0.7-5.5 2.1-9.1 0.3 4.2 1.3 11.4 5.4 12.1 3.1 0.6 7.2-2.5 10.3-5.5-1.6 2.9-3.2 5.9-4.5 8.9-2.4 2.8-3.5 5.6-3.5 5.6z"/>
				<path id="Layer" class="s13" d="m86.7 249.8h-10.4c-0.7 0-1.4-0.5-1.5-1.2l-2.2-13.7h9c-0.3 1.9-0.5 5.5 0.1 8.3 0.6 2.2 2.5 5 5 6.6z"/>
			</g>
			<g id="Layer">
				<path id="Layer" class="s6" d="m165.6 108.2h-44.6c-2.2 0-4-1.7-4-3.9v-33.2c0-2.2 1.8-4 4-4h44.6c2.2 0 4 1.8 4 4v33.2c0 2.2-1.8 3.9-4 3.9z"/>
				<g id="Layer">
					<path id="Layer" class="s5" d="m129.2 81.7v4.4c0 0.3 0.3 0.6 0.7 0.6h2.4c0.4 0 0.7-0.3 0.7-0.6v-4.4c0-0.4 0.3-0.7 0.6-0.7h0.2c0.4 0 0.7 0.3 0.7 0.7v12c0 0.3-0.3 0.6-0.7 0.6h-0.2c-0.3 0-0.6-0.3-0.6-0.6v-5c0-0.3-0.3-0.6-0.7-0.6h-2.4c-0.4 0-0.7 0.3-0.7 0.6v5c0 0.3-0.3 0.6-0.6 0.6h-0.3c-0.3 0-0.6-0.3-0.6-0.6v-12c0-0.4 0.3-0.7 0.6-0.7h0.3c0.3 0 0.6 0.3 0.6 0.7z"/>
					<path id="Layer" class="s5" d="m137.8 82.4h-1.2c-0.3 0-0.6-0.3-0.6-0.7v-0.1c0-0.3 0.3-0.6 0.6-0.6h5.1c0.4 0 0.7 0.3 0.7 0.6v0.1c0 0.4-0.3 0.7-0.7 0.7h-1.1c-0.4 0-0.7 0.3-0.7 0.6v10.7c0 0.3-0.2 0.6-0.6 0.6h-0.2c-0.4 0-0.7-0.3-0.7-0.6v-10.7c0-0.3-0.3-0.6-0.6-0.6z"/>
					<path id="Layer" class="s5" d="m151.8 88.6c-0.1-1.8-0.2-3.7-0.1-5.2h-0.1c-0.3 1.5-0.6 3-1 4.6l-1.7 6.3h-1l-1.5-6c-0.5-1.7-0.8-3.4-1.1-4.9h-0.1c0 1.5 0 3.4-0.1 5.3l-0.3 5c0 0.4-0.2 0.6-0.6 0.6h-0.1c-0.3 0-0.6-0.3-0.6-0.6l0.7-12.1c0-0.3 0.3-0.6 0.7-0.6h0.5c0.3 0 0.5 0.2 0.6 0.5l1.5 5.6c0.4 1.8 0.7 3.1 1 4.6h0.1c0.2-1.5 0.5-2.8 1-4.6l1.3-5.6c0.1-0.3 0.4-0.5 0.7-0.5h0.6c0.3 0 0.6 0.3 0.6 0.6l0.7 12.1c0 0.3-0.3 0.6-0.6 0.6h-0.2c-0.3 0-0.6-0.2-0.6-0.6z"/>
					<path id="Layer" class="s5" d="m156.3 81h0.2c0.3 0 0.6 0.3 0.6 0.6v10.8c0 0.4 0.3 0.6 0.7 0.6h2.4c0.4 0 0.7 0.3 0.7 0.7 0 0.3-0.3 0.6-0.7 0.6h-3.9c-0.4 0-0.7-0.3-0.7-0.6v-12.1c0-0.3 0.3-0.6 0.7-0.6z"/>
				</g>
			</g>
			<g id="Layer">
				<g id="Layer">
					<g id="Layer">
						<path id="Layer" class="s6" d="m185.9 70.6c1.7 0 2.1-1.1 2.1-2.1 0-0.9-0.1-1.7-0.2-2.6-0.1-0.9-0.2-1.7-0.2-2.7 0-2.7 1.7-3.8 3.8-3.8h0.4v1.5h-0.5c-1.2 0-1.7 1-1.7 2.3 0 0.8 0 1.6 0.1 2.3 0.1 0.8 0.2 1.5 0.2 2.3 0 2.3-0.8 3.2-2.1 3.5v0.1c1.3 0.4 2.1 1.2 2.1 3.6 0 0.8-0.1 1.5-0.2 2.3-0.1 0.7-0.1 1.5-0.1 2.3 0 1.4 0.4 2.3 1.8 2.3h0.4v1.6h-0.4c-2 0-3.8-1-3.8-3.9 0-0.9 0.1-1.8 0.2-2.7 0.1-0.9 0.2-1.8 0.2-2.6 0-1-0.4-2.2-2.1-2.2z"/>
						<path id="Layer" class="s6" d="m216.9 72.1c-1.7 0-2.1 1.2-2.1 2.2 0 0.8 0.1 1.7 0.2 2.6 0.1 0.9 0.2 1.8 0.2 2.7 0 2.9-1.8 3.9-3.8 3.9h-0.4v-1.6h0.4c1.4-0.1 1.8-0.9 1.8-2.3 0-0.8-0.1-1.6-0.1-2.3-0.1-0.8-0.2-1.5-0.2-2.3-0.1-2.4 0.8-3.2 2.1-3.6v-0.1c-1.3-0.3-2.2-1.2-2.1-3.5 0-0.8 0.1-1.5 0.2-2.3 0-0.7 0.1-1.5 0.1-2.3 0-1.4-0.5-2.1-1.8-2.3h-0.4v-1.5h0.3c2.2 0 3.9 1.1 3.9 3.8 0 1-0.1 1.8-0.2 2.7-0.1 0.9-0.2 1.7-0.2 2.6 0 1 0.4 2.1 2.1 2.1z"/>
					</g>
				</g>
				<path id="Layer" class="s2" d="m206.4 74.3v-5.8l-5-2.9-5.1 2.9v5.8l5.1 3z"/>
			</g>
			<g id="Layer">
				<path id="Layer" class="s2" d="m244.5 103.4c-4.8-2.3-10.5-1.4-14.2 2.4-4.7 4.6-4.8 12-0.5 16.9l-1.9-0.3c-0.2 0-0.4 0.2-0.4 0.4-0.1 0.2 0.1 0.4 0.3 0.5l2.8 0.3q0.2 0 0.3-0.1 0.2-0.1 0.2-0.3l0.3-2.7c0-0.2-0.1-0.4-0.3-0.5-0.3 0-0.5 0.2-0.5 0.4l-0.2 1.7c-4-4.5-3.9-11.4 0.4-15.8 3.5-3.5 8.9-4.3 13.3-2.1 0.2 0.1 0.5 0 0.6-0.2 0.1-0.2 0-0.5-0.2-0.6z"/>
				<path id="Layer" class="s2" d="m233.9 126.1c4.7 2.3 10.4 1.4 14.2-2.3 4.6-4.7 4.8-12.1 0.5-17l1.8 0.3c0.2 0 0.4-0.2 0.5-0.4 0-0.2-0.2-0.4-0.4-0.4l-2.8-0.4q-0.2 0-0.3 0.1-0.1 0.1-0.2 0.3l-0.3 2.7c0 0.2 0.1 0.4 0.4 0.5 0.2 0 0.4-0.2 0.4-0.4l0.2-1.7c4.1 4.5 3.9 11.4-0.4 15.8-3.5 3.5-8.8 4.4-13.3 2.1-0.2-0.1-0.4 0-0.5 0.2-0.1 0.2-0.1 0.5 0.2 0.6z"/>
			</g>
			<g id="Layer">
				<path id="Layer" class="s2" d="m343.3 149.1h-74.1c-1.3 0-2.4-1.1-2.4-2.5 0-1.3 1.1-2.4 2.4-2.4h74.1c1.4 0 2.5 1.1 2.5 2.4 0 1.4-1.1 2.5-2.5 2.5z"/>
				<path id="Layer" class="s4" d="m316.9 159.7h-47.7c-1.3 0-2.4-1.1-2.4-2.5 0-1.3 1.1-2.4 2.4-2.4h47.7c1.3 0 2.4 1.1 2.4 2.4 0 1.4-1.1 2.5-2.4 2.5z"/>
				<path id="Layer" class="s4" d="m316.9 171.1h-47.7c-1.3 0-2.4-1.1-2.4-2.5 0-1.3 1.1-2.4 2.4-2.4h47.7c1.3 0 2.4 1.1 2.4 2.4 0 1.4-1.1 2.5-2.4 2.5z"/>
			</g>
			<g id="Layer">
				<path id="Layer" class="s4" d="m80.7 108.4h-38.5c-1.4 0-2.5-1.1-2.5-2.4 0-1.4 1.1-2.5 2.5-2.5h38.5c1.3 0 2.4 1.1 2.4 2.5 0 1.3-1.1 2.4-2.4 2.4z"/>
				<path id="Layer" class="s2" d="m66.1 119.1h-23.9c-1.4 0-2.5-1.1-2.5-2.5 0-1.3 1.1-2.4 2.5-2.4h23.9c1.4 0 2.5 1.1 2.5 2.4 0 1.4-1.1 2.5-2.5 2.5z"/>
				<path id="Layer" class="s2" d="m66.1 130.5h-23.9c-1.4 0-2.5-1.1-2.5-2.5 0-1.3 1.1-2.4 2.5-2.4h23.9c1.4 0 2.5 1.1 2.5 2.4 0 1.4-1.1 2.5-2.5 2.5z"/>
			</g>
			<g id="Layer">
				<path id="Layer" class="s17" d="m309.9 285.7c-2.4 6.9-5.2 13-8.2 18.5-10.4 18.9-22.4 30.9-22.8 48.6 0 0-3.8-16.7-0.8-35.6 1.7-10.6 5.5-22 13.3-31.5 21.6-26.6 18.4-50.8 18.4-50.8 0 0 10.8 19.8 0.1 50.8z"/>
				<g id="Layer" style="opacity: .3">
					<path id="Layer" class="s20" d="m284.5 332.1c-0.3-2.2-0.3-4.4-0.1-6.5q0.4-3.3 1.2-6.4c1.1-4.2 2.7-8.2 4.6-12 0.9-2 2-3.8 3.1-5.6l3.5-5.4c2.2-3.6 4.1-7.5 5.7-11.4q2.3-5.9 4-12.1 1.7-6.2 2.8-12.5c0.7-4.2 1.3-8.4 1.5-12.7 0.2-2.1 0.2-4.2 0.1-6.4 0-1-0.1-2.1-0.3-3.1-0.1-1.1-0.3-2.2-0.8-3.1 0.5 0.9 0.7 2 0.9 3 0.2 1.1 0.3 2.2 0.3 3.2 0.2 2.2 0.1 4.3 0.1 6.4-0.2 4.3-0.7 8.6-1.4 12.8q-1.1 6.3-2.7 12.5-1.6 6.2-3.9 12.2c-1.6 4-3.4 7.9-5.6 11.6l-3.5 5.4c-1 1.8-2.1 3.6-3.1 5.6-1.9 3.7-3.4 7.7-4.5 11.8q-0.8 3.1-1.1 6.2c-0.2 2.1-0.3 4.3 0 6.3 0 0.3-0.1 0.5-0.4 0.5-0.2 0-0.4-0.1-0.4-0.3z"/>
				</g>
				<path id="Layer" class="s13" d="m301.7 304.2c-10.4 18.9-22.4 30.9-22.8 48.6 0 0-3.8-16.7-0.8-35.6 6.7-2.7 16.2-7.2 23.6-13z"/>
				<path id="Layer" class="s4" d="m284.9 371.4c0 0-7.6-12.9 10.3-28.9 17.9-15.9 31.9-37 29.2-54.1-17.2 19.9-62.7 48.1-49.8 83z"/>
				<g id="Layer" style="opacity: .3">
					<path id="Layer" class="s20" d="m324.4 288.4c-1.7 3.8-4 7.3-6.5 10.6-2.5 3.3-5.2 6.4-8.1 9.3-2.9 3-6.1 5.7-9.3 8.3-3.1 2.7-6 5.7-8.5 8.9-5.1 6.5-9.1 13.9-11.5 21.7-1.1 4-1.9 8-2 12.1-0.2 4.1 0.4 8.3 2 12 0.1 0.2 0 0.4-0.2 0.5-0.2 0.1-0.5 0-0.6-0.2-1.6-3.9-2.1-8.1-2-12.3 0.2-4.2 1-8.3 2.3-12.2 2.4-8 6.5-15.4 11.7-21.8 2.5-3.3 5.4-6.3 8.6-8.9 3.2-2.7 6.4-5.3 9.3-8.2 2.9-2.9 5.7-6 8.2-9.3 2.5-3.3 4.8-6.7 6.6-10.5z"/>
				</g>
			</g>
			<g id="Layer">
				<path id="Layer" class="s17" d="m28.1 277.8c0 0-9.4-8.5-14.3-29.8 28.6 24.2 35.6 45.8 35.6 45.8z"/>
				<g id="Layer" style="opacity: .3">
					<path id="Layer" class="s20" d="m13.8 248q5.9 8.5 11.6 17.3 2.9 4.3 5.6 8.8c1.7 3 3.5 6 4.9 9.2 0.1 0.2 0.1 0.4-0.2 0.5-0.2 0.1-0.4 0-0.5-0.2q0 0 0 0c-1.4-3.2-3-6.2-4.8-9.2q-2.6-4.5-5.3-8.9-5.5-8.9-11.3-17.5z"/>
				</g>
				<path id="Layer" class="s4" d="m48.8 289.7c-5.2-4.6-12.8-9.2-20-14.1-9.7-6.6-18.6-13.8-20.3-22.6-3.8 31.8 33.2 46.1 33.2 46.1l0.1 0.1 13.4 19.6c0 0 5.5-18.3-6.4-29.1z"/>
				<g id="Layer" style="opacity: .3">
					<path id="Layer" class="s20" d="m8.5 253c0 3.5 1.1 7 2.5 10.2 1.6 3.1 3.7 6 6.2 8.5 2.5 2.5 5.4 4.5 8.4 6.4 3 2 6 3.8 8.9 5.8 5.8 4 11.4 8.6 15.3 14.6 4 6 5.8 13.2 5.8 20.3 0 0.2-0.1 0.4-0.4 0.4-0.2 0-0.4-0.2-0.4-0.4 0.1-7-1.6-14.1-5.5-20-3.8-5.9-9.2-10.5-15-14.6-2.9-2-5.9-3.9-8.9-5.8-2.9-2-5.8-4-8.3-6.6-2.5-2.5-4.6-5.4-6.1-8.6-1.5-3.2-2.5-6.7-2.5-10.2z"/>
				</g>
			</g>
		</g>
	</g>
</svg>